<svg width="24" height="24" viewBox="0 0 24 24" fill="none" xmlns="http://www.w3.org/2000/svg">
<path d="M5 21.5V2.59088H12.2386C13.6051 2.59088 14.7408 2.80632 15.6456 3.23719C16.5566 3.6619 17.2367 4.24358 17.6861 4.98222C18.1416 5.72085 18.3693 6.55797 18.3693 7.49358C18.3693 8.26299 18.2216 8.92161 17.9261 9.46943C17.6307 10.0111 17.2337 10.4512 16.7351 10.7897C16.2365 11.1283 15.6795 11.3714 15.0639 11.5191V11.7038C15.7348 11.7407 16.3781 11.9469 16.9936 12.3224C17.6153 12.6917 18.1231 13.2149 18.517 13.892C18.911 14.5691 19.108 15.3878 19.108 16.348C19.108 17.3267 18.871 18.2069 18.397 18.9886C17.9231 19.7642 17.209 20.3766 16.255 20.826C15.3009 21.2753 14.1006 21.5 12.6541 21.5H5ZM8.42543 18.6378H12.1094C13.3527 18.6378 14.2483 18.4008 14.7962 17.9268C15.3501 17.4467 15.6271 16.8312 15.6271 16.0802C15.6271 15.5201 15.4886 15.0154 15.2116 14.566C14.9347 14.1105 14.5407 13.7535 14.0298 13.495C13.5189 13.2303 12.9096 13.098 12.2017 13.098H8.42543V18.6378ZM8.42543 10.6328H11.8139C12.4048 10.6328 12.9373 10.5251 13.4112 10.3096C13.8852 10.088 14.2576 9.7772 14.5284 9.3771C14.8054 8.97085 14.9439 8.49074 14.9439 7.93676C14.9439 7.20428 14.6854 6.60106 14.1683 6.1271C13.6574 5.65314 12.8973 5.41616 11.8878 5.41616H8.42543V10.6328Z" fill="currentColor"/>
</svg>