<svg width="24" height="24" viewBox="0 0 24 24" fill="none" xmlns="http://www.w3.org/2000/svg">
<path d="M16 2.5V6.1M8 2.5V6.1M3 9.00002H21M5 4.3H19C20.1046 4.3 21 5.10589 21 6.1V19.2C21 20.1941 20.1046 21 19 21H5C3.89543 21 3 20.1941 3 19.2V6.1C3 5.10589 3.89543 4.3 5 4.3Z" stroke="#1E1E1E" stroke-width="2.5" stroke-linecap="round" stroke-linejoin="round"/>
<path d="M6.25 12.75C6.25 12.0596 6.80964 11.5 7.5 11.5C8.19036 11.5 8.75 12.0596 8.75 12.75C8.75 13.4404 8.19036 14 7.5 14C6.80964 14 6.25 13.4404 6.25 12.75Z" fill="#1E1E1E"/>
<path d="M10.75 12.75C10.75 12.0596 11.3096 11.5 12 11.5C12.6904 11.5 13.25 12.0596 13.25 12.75C13.25 13.4404 12.6904 14 12 14C11.3096 14 10.75 13.4404 10.75 12.75Z" fill="#1E1E1E"/>
<path d="M15.25 12.75C15.25 12.0596 15.8096 11.5 16.5 11.5C17.1904 11.5 17.75 12.0596 17.75 12.75C17.75 13.4404 17.1904 14 16.5 14C15.8096 14 15.25 13.4404 15.25 12.75Z" fill="#1E1E1E"/>
<path d="M6.25 17.25C6.25 16.5596 6.80964 16 7.5 16C8.19036 16 8.75 16.5596 8.75 17.25C8.75 17.9404 8.19036 18.5 7.5 18.5C6.80964 18.5 6.25 17.9404 6.25 17.25Z" fill="#1E1E1E"/>
<path d="M10.75 17.25C10.75 16.5596 11.3096 16 12 16C12.6904 16 13.25 16.5596 13.25 17.25C13.25 17.9404 12.6904 18.5 12 18.5C11.3096 18.5 10.75 17.9404 10.75 17.25Z" fill="#1E1E1E"/>
<path d="M15.25 17.25C15.25 16.5596 15.8096 16 16.5 16C17.1904 16 17.75 16.5596 17.75 17.25C17.75 17.9404 17.1904 18.5 16.5 18.5C15.8096 18.5 15.25 17.9404 15.25 17.25Z" fill="#1E1E1E"/>
</svg>
