<svg width="24" height="24" viewBox="0 0 24 24" fill="none" xmlns="http://www.w3.org/2000/svg">
<g clip-path="url(#clip0_126_855)">
<path d="M18.364 5.63604C18.8521 6.1242 18.8521 6.91565 18.364 7.40381L7.40381 18.364C6.91565 18.8521 6.12419 18.8521 5.63604 18.364C5.14788 17.8758 5.14788 17.0843 5.63604 16.5962L16.5962 5.63604C17.0843 5.14788 17.8758 5.14788 18.364 5.63604Z" fill="currentColor"/>
<path d="M5.63604 5.63604C6.12419 5.14788 6.91565 5.14789 7.40381 5.63604L18.364 16.5962C18.8521 17.0844 18.8521 17.8758 18.364 18.364C17.8758 18.8521 17.0843 18.8521 16.5962 18.364L5.63604 7.40381C5.14788 6.91565 5.14788 6.1242 5.63604 5.63604Z" fill="currentColor"/>
</g>
<defs>
<clipPath id="clip0_126_855">
<rect width="24" height="24" fill="white"/>
</clipPath>
</defs>
</svg>
