<svg width="24" height="24" viewBox="0 0 24 24" fill="none" xmlns="http://www.w3.org/2000/svg">
<path d="M5.57812 2.34998L9.40625 8.60779H9.53125L13.3594 2.34998H16.1562L11.1719 10.35L16.1875 18.35H13.375L9.53125 12.1781H9.40625L5.5625 18.35H2.75L7.85156 10.35L2.78125 2.34998H5.57812Z" fill="currentColor"/>
<path d="M15.8565 21.7221V20.4579L18.5092 18.1355C18.7081 17.9556 18.8774 17.791 19.017 17.6419C19.1567 17.4904 19.2633 17.3388 19.3366 17.1873C19.41 17.0335 19.4467 16.8665 19.4467 16.6866C19.4467 16.4854 19.4029 16.3138 19.3153 16.1717C19.2277 16.0273 19.107 15.916 18.9531 15.8379C18.7992 15.7598 18.6229 15.7207 18.424 15.7207C18.2228 15.7207 18.0464 15.7621 17.8949 15.845C17.7434 15.9255 17.625 16.0427 17.5398 16.1966C17.4569 16.3504 17.4155 16.5375 17.4155 16.7576H15.75C15.75 16.2629 15.8613 15.8355 16.0838 15.4757C16.3063 15.1158 16.6188 14.8388 17.0213 14.6447C17.4261 14.4482 17.8961 14.35 18.4311 14.35C18.9827 14.35 19.4621 14.4423 19.8693 14.627C20.2765 14.8116 20.5914 15.0697 20.8139 15.4011C21.0388 15.7302 21.1513 16.1125 21.1513 16.5481C21.1513 16.8251 21.0956 17.0997 20.9844 17.372C20.8731 17.6442 20.6731 17.9449 20.3842 18.274C20.0978 18.6031 19.6906 18.9972 19.1626 19.4565L18.2926 20.2591V20.3052H21.2401V21.7221H15.8565Z" fill="currentColor"/>
</svg>