<svg width="17" height="20" viewBox="0 0 17 20" fill="none" xmlns="http://www.w3.org/2000/svg">
<path d="M0 9.1676H16.7301V10.9403H0V9.1676Z" fill="currentColor"/>
<path d="M12.3906 5.22585C12.2922 4.3518 11.8859 3.67472 11.1719 3.1946C10.4579 2.70833 9.5592 2.4652 8.47587 2.4652C7.7003 2.4652 7.02937 2.58831 6.46308 2.83452C5.89679 3.07457 5.45669 3.40696 5.14277 3.83168C4.835 4.25024 4.68112 4.72727 4.68112 5.26279C4.68112 5.71212 4.78576 6.09991 4.99504 6.42614C5.21048 6.75237 5.49054 7.02628 5.83524 7.24787C6.18609 7.46331 6.56157 7.64489 6.96166 7.79261C7.36176 7.93419 7.74646 8.05114 8.11578 8.14347L9.96237 8.62358C10.5656 8.77131 11.1842 8.97136 11.8182 9.22372C12.4522 9.47609 13.04 9.80848 13.5817 10.2209C14.1234 10.6333 14.5604 11.1442 14.8928 11.7536C15.2313 12.3629 15.4006 13.0923 15.4006 13.9418C15.4006 15.0128 15.1236 15.9638 14.5696 16.7947C14.0218 17.6257 13.2247 18.2813 12.1783 18.7614C11.138 19.2415 9.87928 19.4815 8.402 19.4815C6.98628 19.4815 5.76138 19.2569 4.72729 18.8075C3.6932 18.3582 2.88377 17.7211 2.29902 16.8963C1.71427 16.0653 1.39111 15.0805 1.32956 13.9418H4.19178C4.24717 14.625 4.46876 15.1944 4.85655 15.6499C5.25049 16.0992 5.75214 16.4347 6.36152 16.6562C6.97705 16.8717 7.65106 16.9794 8.38354 16.9794C9.18988 16.9794 9.90697 16.8532 10.5348 16.6009C11.1688 16.3423 11.6674 15.9853 12.0306 15.5298C12.3937 15.0682 12.5753 14.5296 12.5753 13.9141C12.5753 13.3539 12.4153 12.8954 12.0952 12.5384C11.7813 12.1813 11.3535 11.8859 10.8118 11.652C10.2763 11.4181 9.67 11.2119 8.99291 11.0334L6.75854 10.424C5.24433 10.0116 4.04405 9.4053 3.15768 8.60511C2.27748 7.80492 1.83737 6.74621 1.83737 5.42898C1.83737 4.33949 2.13283 3.38849 2.72374 2.57599C3.31464 1.76349 4.11483 1.13258 5.1243 0.683239C6.13377 0.227747 7.2725 0 8.5405 0C9.8208 0 10.9503 0.224669 11.929 0.674006C12.9138 1.12334 13.6894 1.74195 14.2557 2.52983C14.822 3.31155 15.1174 4.21023 15.1421 5.22585H12.3906Z" fill="currentColor"/>
</svg>