<svg width="24" height="24" viewBox="0 0 24 24" fill="none" xmlns="http://www.w3.org/2000/svg">
<path d="M18.2939 4.90234L19.3764 4.27727C19.0835 3.77006 18.4778 3.53422 17.919 3.70989L18.2939 4.90234ZM21.2939 10.0977L22.1386 11.0191C22.5706 10.6231 22.6695 9.9801 22.3764 9.47258L21.2939 10.0977ZM21.2939 13.9023L22.3764 14.5274C22.6694 14.0201 22.5707 13.3774 22.1391 12.9813L21.2939 13.9023ZM18.2939 19.0977L17.9188 20.29C18.4775 20.4659 19.0835 20.23 19.3764 19.7227L18.2939 19.0977ZM15 21V22.25C15.586 22.25 16.0934 21.8428 16.2203 21.2707L15 21ZM9 21L7.77985 21.2715C7.90708 21.8433 8.41427 22.25 9 22.25V21ZM5.70605 19.0977L4.62357 19.7227C4.91655 20.2301 5.52264 20.4659 6.08149 20.2899L5.70605 19.0977ZM2.70605 13.9023L1.86071 12.9815C1.42925 13.3776 1.33068 14.0202 1.62357 14.5274L2.70605 13.9023ZM2.70605 10.0977L1.62357 9.47258C1.33056 9.98 1.42934 10.6229 1.86118 11.0189L2.70605 10.0977ZM5.70605 4.90234L6.0811 3.70993C5.52234 3.53419 4.91648 3.77002 4.62357 4.27727L5.70605 4.90234ZM9 3V1.75C8.4143 1.75 7.90714 2.15668 7.77987 2.72838L9 3ZM15 3L16.2202 2.72879C16.0931 2.15689 15.5859 1.75 15 1.75V3ZM3.97647 12.7361L3.13113 11.8152L3.97647 12.7361ZM8.74384 19.8489L7.52369 20.1204L8.74384 19.8489ZM15.2551 19.8499L14.0348 19.5792L15.2551 19.8499ZM20.4254 10.8939L21.27 11.8153L20.4254 10.8939ZM20.4248 13.1048L19.5797 14.0258L20.4248 13.1048ZM17.1698 5.25578L17.5448 6.44823L18.6689 6.09479L18.2939 4.90234L17.919 3.70989L16.7949 4.06333L17.1698 5.25578ZM18.2939 4.90234L17.2115 5.52742L20.2115 10.7227L21.2939 10.0977L22.3764 9.47258L19.3764 4.27727L18.2939 4.90234ZM21.2939 10.0977L20.4493 9.17621L19.5807 9.97242L20.4254 10.8939L21.27 11.8153L22.1386 11.0191L21.2939 10.0977ZM20.4248 13.1048L19.5797 14.0258L20.4488 14.8234L21.2939 13.9023L22.1391 12.9813L21.2699 12.1838L20.4248 13.1048ZM21.2939 13.9023L20.2115 13.2773L17.2115 18.4726L18.2939 19.0977L19.3764 19.7227L22.3764 14.5274L21.2939 13.9023ZM18.2939 19.0977L18.6691 17.9053L17.5449 17.5516L17.1698 18.7439L16.7946 19.9363L17.9188 20.29L18.2939 19.0977ZM15.2551 19.8499L14.0348 19.5792L13.7797 20.7293L15 21L16.2203 21.2707L16.4755 20.1206L15.2551 19.8499ZM15 21V19.75H9V21V22.25H15V21ZM9 21L10.2202 20.7285L9.96399 19.5774L8.74384 19.8489L7.52369 20.1204L7.77985 21.2715L9 21ZM6.82913 18.744L6.45369 17.5517L5.33062 17.9054L5.70605 19.0977L6.08149 20.2899L7.20457 19.9363L6.82913 18.744ZM5.70605 19.0977L6.78854 18.4726L3.78854 13.2773L2.70605 13.9023L1.62357 14.5274L4.62357 19.7227L5.70605 19.0977ZM2.70605 13.9023L3.5514 14.8232L4.82181 13.6569L3.97647 12.7361L3.13113 11.8152L1.86071 12.9815L2.70605 13.9023ZM3.97609 11.2624L4.82096 10.3412L3.55093 9.17641L2.70605 10.0977L1.86118 11.0189L3.13122 12.1837L3.97609 11.2624ZM2.70605 10.0977L3.78854 10.7227L6.78854 5.52742L5.70605 4.90234L4.62357 4.27727L1.62357 9.47258L2.70605 10.0977ZM5.70605 4.90234L5.33101 6.09475L6.45456 6.44814L6.82961 5.25573L7.20465 4.06332L6.0811 3.70993L5.70605 4.90234ZM8.74382 4.15078L9.96395 4.42241L10.2201 3.27162L9 3L7.77987 2.72838L7.52368 3.87916L8.74382 4.15078ZM9 3V4.25H15V3V1.75H9V3ZM15 3L13.7798 3.27121L14.0354 4.4215L15.2557 4.15029L16.4759 3.87908L16.2202 2.72879L15 3ZM15 12H13.75C13.75 12.9665 12.9665 13.75 12 13.75V15V16.25C14.3472 16.25 16.25 14.3472 16.25 12H15ZM12 15V13.75C11.0335 13.75 10.25 12.9665 10.25 12H9H7.75C7.75 14.3472 9.65279 16.25 12 16.25V15ZM9 12H10.25C10.25 11.0335 11.0335 10.25 12 10.25V9V7.75C9.65279 7.75 7.75 9.65279 7.75 12H9ZM12 9V10.25C12.9665 10.25 13.75 11.0335 13.75 12H15H16.25C16.25 9.65279 14.3472 7.75 12 7.75V9ZM6.82961 5.25573L6.45456 6.44814C7.99195 6.93169 9.61374 5.99553 9.96395 4.42241L8.74382 4.15078L7.52368 3.87916C7.49185 4.02217 7.34441 4.10728 7.20465 4.06332L6.82961 5.25573ZM3.97647 12.7361L4.82181 13.6569C5.79333 12.765 5.79293 11.2326 4.82096 10.3412L3.97609 11.2624L3.13122 12.1837C3.02322 12.0846 3.02318 11.9143 3.13113 11.8152L3.97647 12.7361ZM8.74384 19.8489L9.96399 19.5774C9.61381 18.0038 7.99135 17.0675 6.45369 17.5517L6.82913 18.744L7.20457 19.9363C7.34436 19.8923 7.49185 19.9774 7.52369 20.1204L8.74384 19.8489ZM17.1698 18.7439L17.5449 17.5516C16.0067 17.0675 14.384 18.0049 14.0348 19.5792L15.2551 19.8499L16.4755 20.1206C16.5072 19.9775 16.6547 19.8923 16.7946 19.9363L17.1698 18.7439ZM20.4254 10.8939L19.5807 9.97242C18.3921 11.062 18.3916 12.9357 19.5797 14.0258L20.4248 13.1048L21.2699 12.1838C21.1619 12.0847 21.162 11.9144 21.27 11.8153L20.4254 10.8939ZM17.1698 5.25578L16.7949 4.06333C16.6551 4.10728 16.5077 4.02212 16.4759 3.87908L15.2557 4.15029L14.0354 4.4215C14.3852 5.99499 16.0071 6.93169 17.5448 6.44823L17.1698 5.25578Z" fill="#1E1E1E"/>
</svg>
