<svg width="24" height="24" viewBox="0 0 24 24" fill="none" xmlns="http://www.w3.org/2000/svg">
<path d="M5.57812 5.65002L9.40625 11.9078H9.53125L13.3594 5.65002H16.1562L11.1719 13.65L16.1875 21.65H13.375L9.53125 15.4781H9.40625L5.5625 21.65H2.75L7.85156 13.65L2.78125 5.65002H5.57812Z" fill="currentColor"/>
<path d="M15.8565 9.37216V8.10795L18.5092 5.78551C18.7081 5.60559 18.8774 5.44105 19.017 5.2919C19.1567 5.14039 19.2633 4.98887 19.3366 4.83736C19.41 4.68348 19.4467 4.51657 19.4467 4.33665C19.4467 4.13542 19.4029 3.96378 19.3153 3.82173C19.2277 3.67732 19.107 3.56605 18.9531 3.48793C18.7992 3.4098 18.6229 3.37074 18.424 3.37074C18.2228 3.37074 18.0464 3.41217 17.8949 3.49503C17.7434 3.57552 17.625 3.69271 17.5398 3.84659C17.4569 4.00047 17.4155 4.1875 17.4155 4.40767H15.75C15.75 3.91288 15.8613 3.48556 16.0838 3.12571C16.3063 2.76586 16.6188 2.48887 17.0213 2.29474C17.4261 2.09825 17.8961 2 18.4311 2C18.9827 2 19.4621 2.09233 19.8693 2.27699C20.2765 2.46165 20.5914 2.7197 20.8139 3.05114C21.0388 3.38021 21.1513 3.76255 21.1513 4.19815C21.1513 4.47514 21.0956 4.74976 20.9844 5.02202C20.8731 5.29427 20.6731 5.59493 20.3842 5.92401C20.0978 6.25308 19.6906 6.64725 19.1626 7.10653L18.2926 7.90909V7.95526H21.2401V9.37216H15.8565Z" fill="currentColor"/>
</svg>