<svg width="15" height="20" viewBox="0 0 15 20" fill="none" xmlns="http://www.w3.org/2000/svg">
<path d="M0 18.5228H14.6733V19.8864H0V18.5228Z" fill="currentColor"/>
<path d="M10.6037 0H13.2386V9.50284C13.2386 10.5445 12.9924 11.4607 12.5 12.2514C12.0123 13.0421 11.3257 13.66 10.4403 14.1051C9.5549 14.5455 8.52033 14.7656 7.33662 14.7656C6.14817 14.7656 5.11124 14.5455 4.22582 14.1051C3.34041 13.66 2.65386 13.0421 2.16617 12.2514C1.67848 11.4607 1.43463 10.5445 1.43463 9.50284V0H4.06957V9.28267C4.06957 9.88873 4.20215 10.4285 4.4673 10.902C4.73719 11.3755 5.11598 11.7472 5.60367 12.017C6.09135 12.2822 6.66901 12.4148 7.33662 12.4148C8.00423 12.4148 8.58189 12.2822 9.06958 12.017C9.562 11.7472 9.94079 11.3755 10.2059 10.902C10.4711 10.4285 10.6037 9.88873 10.6037 9.28267V0Z" fill="currentColor"/>
</svg>